<svg width="20" height="21" viewBox="0 0 20 21" fill="none" xmlns="http://www.w3.org/2000/svg">
<path d="M6.97837 0.636719V1.73794H13.0216V0.636719H14.4173V1.73794H18.6043C18.957 1.737 19.297 1.86229 19.556 2.08861C19.8149 2.31493 19.9735 2.6255 20 2.95785V13.5546C20.0006 13.8628 19.8871 14.1614 19.679 14.3987L19.5953 14.4844L13.4892 20.2543C13.2573 20.474 12.9509 20.6094 12.6239 20.6367H3.48919C2.58979 20.6375 1.7248 20.3102 1.07469 19.7229C0.424585 19.1356 0.0395784 18.3338 5.54093e-06 17.4847V3.05676C-0.000987764 2.72347 0.131602 2.40218 0.37111 2.15751C0.610619 1.91284 0.939281 1.76293 1.291 1.73794H5.5827V0.636719H6.97837ZM18.6043 8.33207H1.39568V17.3397C1.39472 17.8444 1.59796 18.3304 1.9638 18.6981C2.32963 19.0659 2.8304 19.2876 3.36358 19.3179H11.1654V15.5856C11.1645 14.7357 11.511 13.9184 12.1325 13.3041C12.754 12.6898 13.6025 12.3259 14.501 12.2885H18.6043V8.33207ZM18.5485 13.6074H14.6546C14.1204 13.6065 13.6061 13.7985 13.2169 14.1442C12.8277 14.4899 12.5931 14.9631 12.5611 15.4669V19.2651L18.5485 13.6074ZM5.5827 3.05676H1.39568V7.01324H18.6043V3.05676H14.4173V4.15139H13.0216V3.05676H6.97837V4.15139H5.5827V3.05676Z" fill="#0A0A0A"/>
</svg>
